<svg xmlns="http://www.w3.org/2000/svg" viewBox="-8 -6 80 80" preserveAspectRatio="xMidYMid meet" id="gym-board">
	<g>
		<rect width="56" height="31" x="4" y="24" fill="#64c37d" rx="2" ry="2"></rect>
		<path fill="#4b925e" d="M7,29a2.006,2.006,0,0,1,2-2H60V26a2.006,2.006,0,0,0-2-2H6a2.006,2.006,0,0,0-2,2V53a2.006,2.006,0,0,0,2,2H7Z"></path>
		<path fill="#a71159" d="M35,5a3,3,0,0,1-6,0,3,3,0,0,1,6,0Z"></path>
		<path fill="#ea348b" d="M30,7a2.989,2.989,0,0,1,4.976-2.244A2.993,2.993,0,1,0,29.7,6.92a2.886,2.886,0,0,0,.321.314C30.015,7.156,30,7.08,30,7Z"></path>
		<path fill="#231f20" d="M58,23H54.9a5.015,5.015,0,0,0-3.008-3.623,1.967,1.967,0,0,0-2.575-1.249L35.6,6.7a4,4,0,1,0-7.2,0L14.684,18.128a1.967,1.967,0,0,0-2.575,1.249A5.015,5.015,0,0,0,9.1,23H6a3,3,0,0,0-3,3V53a3,3,0,0,0,3,3H58a3,3,0,0,0,3-3V26A3,3,0,0,0,58,23Zm-5.184,0H47.184a3,3,0,0,1,1.378-1.616,1.986,1.986,0,0,0,2.876,0A3,3,0,0,1,52.816,23ZM18.9,23a5.007,5.007,0,0,0-2.745-3.493L29.676,8.241a3.945,3.945,0,0,0,4.65,0l13.52,11.264A5.007,5.007,0,0,0,45.1,23ZM32,3a2,2,0,0,1,2,2,1.952,1.952,0,0,1-.475,1.287,2.044,2.044,0,0,1-3.062-.014A1.94,1.94,0,0,1,30,5,2,2,0,0,1,32,3ZM12.562,21.384a1.986,1.986,0,0,0,2.876,0A3,3,0,0,1,16.816,23H11.184A3,3,0,0,1,12.562,21.384ZM59,53a1,1,0,0,1-1,1H6a1,1,0,0,1-1-1V26a1,1,0,0,1,1-1H9.1a5.015,5.015,0,0,0,3.008,3.623,2,2,0,1,0,.453-2.007A3,3,0,0,1,11.184,25H52.816a3,3,0,0,1-1.378,1.616,2,2,0,1,0,.453,2.007A5.015,5.015,0,0,0,54.9,25H58a1,1,0,0,1,1,1Z"></path>
		<polygon fill="#231f20" points="34 35 34.864 35 32 38.437 29.136 35 30 35 30 33 24 33 24 35 26.531 35 31 40.362 31 48 29 48 29 50 35 50 35 48 33 48 33 40.362 37.469 35 40 35 40 33 34 33 34 35"></polygon>
		<path fill="#231f20" d="M21 33H9a1 1 0 0 0-1 1V49a1 1 0 0 0 1 1H21a1 1 0 0 0 1-1V42a1 1 0 0 0-1-1H15a1 1 0 0 0-1 1v2h2V43h4v5H10V35H20v2h2V34A1 1 0 0 0 21 33zM55 33H43a1 1 0 0 0-1 1V49a1 1 0 0 0 1 1h3V48H44V35h4v7H47v2h4V42H50V35h4V48H52v2h3a1 1 0 0 0 1-1V34A1 1 0 0 0 55 33z"></path>
	</g>
</svg>
